<svg xmlns="http://www.w3.org/2000/svg" width="32px" height="32px"  viewBox="0 0 24 24">	<path d="M12.09,21.925c-1.368,0-2.647-0.249-3.838-0.748c-1.191-0.499-2.237-1.196-3.137-2.091
                c-0.9-0.896-1.603-1.948-2.111-3.156c-0.508-1.208-0.76-2.518-0.76-3.93c0-1.341,0.231-2.609,0.694-3.805s1.129-2.252,1.999-3.17
                C5.806,4.108,6.86,3.387,8.1,2.862s2.631-0.787,4.175-0.787c1.658,0,3.103,0.275,4.334,0.827c1.231,0.552,2.242,1.29,3.031,2.217
                c0.789,0.926,1.358,1.961,1.707,3.103s0.474,2.305,0.378,3.487c-0.133,1.623-0.565,2.823-1.297,3.599
                c-0.733,0.777-1.641,1.165-2.727,1.165c-0.873,0-1.594-0.203-2.163-0.608c-0.569-0.406-0.942-0.971-1.118-1.694l0.503,0.106
                c-0.265,0.582-0.697,1.015-1.296,1.297c-0.601,0.282-1.227,0.423-1.88,0.423c-0.715,0-1.337-0.152-1.866-0.457
                c-0.529-0.304-0.942-0.728-1.237-1.27c-0.296-0.542-0.444-1.167-0.444-1.873c0-0.741,0.152-1.382,0.456-1.925
                C8.96,9.929,9.381,9.51,9.919,9.214c0.538-0.296,1.156-0.444,1.853-0.444c0.573,0,1.163,0.121,1.767,0.364
                c0.604,0.243,1.065,0.677,1.383,1.304l-0.503,0.503v-1.48c0-0.221,0.179-0.4,0.4-0.4h0.232c0.221,0,0.4,0.179,0.4,0.4v3.517
                c0,0.644,0.177,1.202,0.529,1.674c0.353,0.472,0.971,0.708,1.853,0.708c0.485,0,0.927-0.137,1.323-0.41
                c0.397-0.273,0.719-0.666,0.967-1.178c0.247-0.511,0.392-1.129,0.437-1.853c0.079-1.315-0.06-2.506-0.417-3.573
                c-0.357-1.067-0.905-1.987-1.642-2.759s-1.63-1.365-2.679-1.78c-1.05-0.415-2.232-0.622-3.547-0.622
                c-1.411,0-2.665,0.247-3.758,0.741s-2.018,1.16-2.773,1.998C4.991,6.764,4.416,7.71,4.024,8.764
                c-0.392,1.054-0.588,2.142-0.588,3.262c0,1.209,0.226,2.345,0.682,3.408c0.453,1.063,1.08,1.998,1.879,2.806
                c0.799,0.807,1.727,1.438,2.786,1.892c1.059,0.454,2.188,0.682,3.388,0.682c0.89,0,1.784-0.126,2.679-0.377
                c0.743-0.209,1.408-0.486,1.997-0.832c0.196-0.115,0.446-0.043,0.553,0.158l0.102,0.192c0.098,0.186,0.038,0.419-0.142,0.527
                c-0.762,0.457-1.558,0.804-2.391,1.04C14.02,21.79,13.06,21.925,12.09,21.925z M11.799,14.859c0.741,0,1.337-0.216,1.786-0.649
                c0.45-0.432,0.675-1.046,0.675-1.839c0-0.838-0.231-1.467-0.694-1.886c-0.463-0.419-1.052-0.629-1.767-0.629
                c-0.794,0-1.408,0.216-1.839,0.649c-0.433,0.432-0.649,1.054-0.649,1.866c0,0.829,0.227,1.451,0.682,1.866
                S11.048,14.859,11.799,14.859z"/></svg>