<svg xmlns="http://www.w3.org/2000/svg" width="32px" height="32px"  viewBox="0 0 24 24"><g>
                <path d="M11.65,10.15c0.18-0.2,0.52-0.19,0.7,0l3,3c0.2,0.19,0.19,0.5,0,0.7c-0.18,0.2-0.52,0.19-0.7,0
                    L12,11.21l-2.65,2.64c-0.19,0.2-0.5,0.19-0.7,0c-0.2-0.18-0.19-0.52,0-0.7L11.65,10.15z"/>
                <path d="M2.067,12c0-5.477,4.456-9.933,9.933-9.933S21.933,6.523,21.933,12S17.477,21.933,12,21.933
                    S2.067,17.477,2.067,12z M20.933,12c0-4.926-4.007-8.933-8.933-8.933S3.067,7.074,3.067,12S7.074,20.933,12,20.933
                    S20.933,16.926,20.933,12z"/>
            </g></svg>