<svg xmlns="http://www.w3.org/2000/svg" width="32px" height="32px"  viewBox="0 0 24 24"><g>
                <path d="M8.498,11H5.564c-1.379,0-2.5-1.122-2.5-2.5V5.564c0-1.378,1.121-2.5,2.5-2.5h2.934
                    c1.379,0,2.5,1.122,2.5,2.5V8.5C10.998,9.878,9.876,11,8.498,11z M5.564,4.064c-0.827,0-1.5,0.673-1.5,1.5V8.5
                    c0,0.827,0.673,1.5,1.5,1.5h2.934c0.827,0,1.5-0.673,1.5-1.5V5.564c0-0.827-0.673-1.5-1.5-1.5H5.564z"/>
                <path d="M18.436,11h-2.934c-1.379,0-2.5-1.122-2.5-2.5V5.564c0-1.378,1.121-2.5,2.5-2.5h2.934
                    c1.379,0,2.5,1.122,2.5,2.5V8.5C20.936,9.878,19.815,11,18.436,11z M15.502,4.064c-0.827,0-1.5,0.673-1.5,1.5V8.5
                    c0,0.827,0.673,1.5,1.5,1.5h2.934c0.827,0,1.5-0.673,1.5-1.5V5.564c0-0.827-0.673-1.5-1.5-1.5H15.502z"/>
                <path d="M8.499,20.936H5.565c-1.379,0-2.5-1.122-2.5-2.5V15.5c0-1.378,1.121-2.5,2.5-2.5h2.934
                    c1.379,0,2.5,1.122,2.5,2.5v2.936C10.999,19.814,9.877,20.936,8.499,20.936z M5.565,14c-0.827,0-1.5,0.673-1.5,1.5v2.936
                    c0,0.827,0.673,1.5,1.5,1.5h2.934c0.827,0,1.5-0.673,1.5-1.5V15.5c0-0.827-0.673-1.5-1.5-1.5H5.565z"/>
                <path d="M18.436,20.936h-2.934c-1.379,0-2.5-1.122-2.5-2.5V15.5c0-1.378,1.121-2.5,2.5-2.5h2.934
                    c1.379,0,2.5,1.122,2.5,2.5v2.936C20.936,19.814,19.815,20.936,18.436,20.936z M15.502,14c-0.827,0-1.5,0.673-1.5,1.5v2.936
                    c0,0.827,0.673,1.5,1.5,1.5h2.934c0.827,0,1.5-0.673,1.5-1.5V15.5c0-0.827-0.673-1.5-1.5-1.5H15.502z"/>
            </g></svg>