<svg xmlns="http://www.w3.org/2000/svg" width="42px" height="32px"  viewBox="0 0 24 24"><path d="M19.37,10.22l-6.2-7.6C12.88,2.27,12.46,2.06,12,2.06c-0.45,0-0.87,0.2-1.16,0.55l-6.21,7.61
                c-0.37,0.45-0.57,1.01-0.57,1.59v7.63c0,1.37,1.12,2.5,2.5,2.5h10.88c1.38,0,2.5-1.13,2.5-2.5v-7.63
                C19.94,11.23,19.74,10.67,19.37,10.22z M10,20.94v-5.5c0-0.83,0.67-1.5,1.5-1.5h1c0.83,0,1.5,0.67,1.5,1.5v5.5H10z M18.94,19.44
                c0,0.82-0.68,1.5-1.5,1.5H15v-5.5c0-1.38-1.12-2.5-2.5-2.5h-1c-1.38,0-2.5,1.12-2.5,2.5v5.5H6.56c-0.82,0-1.5-0.68-1.5-1.5v-7.63
                c0-0.35,0.12-0.69,0.34-0.95l6.22-7.61c0.09-0.12,0.23-0.19,0.38-0.19c0.16,0,0.3,0.07,0.39,0.19l6.21,7.61
                c0.22,0.26,0.34,0.6,0.34,0.95V19.44z"/></svg>