<svg xmlns="http://www.w3.org/2000/svg" width="32px" height="32px"  viewBox="0 0 24 24"><g>
                <path d="M12.599,20.936h-1.301c-0.399,0-0.749-0.269-0.852-0.654l-0.774-2.833l-2.497,1.435
                    c-0.345,0.196-0.78,0.14-1.06-0.139L5.19,17.827c-0.283-0.282-0.342-0.72-0.143-1.066l1.468-2.545L6.51,14.202l-2.787-0.747
                    c-0.384-0.103-0.653-0.453-0.653-0.851v-1.303c0-0.397,0.268-0.747,0.651-0.851l2.839-0.777L5.121,7.171
                    C4.924,6.826,4.982,6.389,5.262,6.109L6.18,5.191c0.279-0.28,0.716-0.34,1.061-0.142l2.552,1.464l0.012-0.004l0.746-2.791
                    c0.102-0.385,0.452-0.654,0.851-0.654h1.302c0.399,0,0.749,0.269,0.852,0.655l0.763,2.838l2.508-1.441
                    c0.344-0.197,0.778-0.139,1.06,0.139l0.925,0.918c0.284,0.282,0.342,0.721,0.142,1.067l-1.468,2.537l0.008,0.022l2.786,0.746
                    c0.385,0.104,0.653,0.454,0.653,0.852v1.302c0,0.399-0.269,0.749-0.654,0.852l-2.836,0.774l1.439,2.505
                    c0.198,0.345,0.14,0.782-0.142,1.063l-0.917,0.917c-0.282,0.281-0.718,0.338-1.063,0.141l-2.539-1.461l-0.022,0.009l-0.746,2.785
                    C13.347,20.667,12.997,20.936,12.599,20.936z M11.388,19.936h1.12l0.738-2.755c0.072-0.268,0.269-0.489,0.528-0.592l0.134-0.052
                    c0.249-0.099,0.526-0.078,0.761,0.057l2.509,1.444l0.789-0.789l-1.423-2.477c-0.136-0.236-0.155-0.528-0.048-0.781l0.052-0.125
                    c0.105-0.252,0.318-0.438,0.584-0.51l2.799-0.749v-1.12l-2.755-0.738c-0.269-0.072-0.49-0.27-0.592-0.529l-0.051-0.131
                    c-0.099-0.251-0.078-0.53,0.057-0.763l1.452-2.508l-0.796-0.791l-2.48,1.425c-0.237,0.136-0.518,0.155-0.772,0.052l-0.115-0.047
                    c-0.252-0.102-0.447-0.322-0.518-0.588l-0.749-2.805h-1.119l-0.738,2.762C10.681,7.1,10.48,7.323,10.216,7.423l-0.12,0.045
                    C9.85,7.563,9.575,7.542,9.345,7.41L6.823,5.962l-0.79,0.789l1.422,2.476c0.137,0.239,0.154,0.532,0.046,0.785L7.45,10.132
                    c-0.105,0.247-0.317,0.431-0.579,0.502l-2.803,0.758v1.121l2.757,0.738c0.268,0.072,0.488,0.269,0.591,0.525l0.048,0.121
                    c0.102,0.253,0.082,0.534-0.055,0.77l-1.451,2.515l0.796,0.791l2.47-1.419c0.242-0.138,0.535-0.156,0.787-0.045l0.106,0.044
                    c0.256,0.098,0.453,0.319,0.525,0.59L11.388,19.936z M9.751,17.482c0.002,0.001,0.005,0.002,0.008,0.003L9.751,17.482z
                    M9.605,17.421c0.002,0.001,0.004,0.002,0.007,0.003L9.605,17.421z M6.488,14.147C6.488,14.148,6.488,14.148,6.488,14.147
                    L6.488,14.147z M6.532,9.736C6.532,9.736,6.532,9.737,6.532,9.736L6.532,9.736z M14.256,6.532L14.256,6.532
                    C14.256,6.532,14.256,6.532,14.256,6.532z"/>
                <path d="M12,15c-1.654,0-3-1.346-3-3s1.346-3,3-3s3,1.346,3,3S13.655,15,12,15z M12,10c-1.103,0-2,0.897-2,2
                    s0.897,2,2,2s2-0.897,2-2S13.103,10,12,10z"/>
            </g></svg>